<svg xmlns="http://www.w3.org/2000/svg" width="115.786" height="39.479" viewBox="0 0 115.786 39.479">
  <g id="signature" transform="translate(-20.947 -24.075)">
    <g id="Group_8" data-name="Group 8" transform="translate(20.947 24.075)">
      <path id="Path_8" data-name="Path 8" d="M228.024,57.3a9.817,9.817,0,0,0-.134-2.2,4.107,4.107,0,0,1-.037-.893,7.257,7.257,0,0,1,.077-1.809,5.965,5.965,0,0,0-.047-1.195,14.152,14.152,0,0,1,.1-2.353,9.237,9.237,0,0,0-.114-2.54,8.643,8.643,0,0,1-.017-.886,4.693,4.693,0,0,0-.141-.5c-.06-.305-.1-.614-.148-.926a2.877,2.877,0,0,1-.017-.416,1.983,1.983,0,0,1,.05-.668,5.527,5.527,0,0,1,.654-1.228c.181-.238.383-.614.846-.413.117.05.309-.03.45-.087.373-.148.56-.1.695.262a.32.32,0,0,0,.376.238.512.512,0,0,1,.567.628.228.228,0,0,0,.007.128,2.583,2.583,0,0,1,.292,2.087c-.01.07.034.151.034.225,0,.282,0,.564-.007.849,0,.064-.057.124-.06.188a6.97,6.97,0,0,1-.07,1.275,8.631,8.631,0,0,0,.013,1.953c-.007.238-.034.48-.017.715.007.087.1.171.121.2-.05.443-.124.856-.141,1.269a6.212,6.212,0,0,1-.1,1.238,9.458,9.458,0,0,0-.161,1.879c-.01.362.074.728.084,1.091.01.322-.023.644-.034.963,0,.1-.024.265.03.3a.928.928,0,0,0,.517.208,5.571,5.571,0,0,0,.9-.252,1.424,1.424,0,0,1,.346-.077,1.663,1.663,0,0,0,1.111-.45c.087-.081.221-.2.3-.181.483.138.745-.218,1.077-.43a3.336,3.336,0,0,1,.584-.242c.282-.107.564-.211.879-.329-.175-.326-.218-.557.084-.732.044-.027.04-.158.04-.242,0-.7-.007-1.4.013-2.094,0-.191.131-.383.128-.574-.01-.47-.067-.936-.094-1.4a.629.629,0,0,1,.044-.359.64.64,0,0,0-.04-.812,2.555,2.555,0,0,0,.386-1.332,4.93,4.93,0,0,1,.181-1.537,3.821,3.821,0,0,0,.1-1.188c0-.044-.013-.1.007-.134a3.134,3.134,0,0,0,.221-1.346c.047-.4.027-.8.037-1.2a1.157,1.157,0,0,1,.023-.188,1.71,1.71,0,0,0,.074-.527c.268-.181.282-.47.319-.782a2.493,2.493,0,0,1,.815-1.336,2.239,2.239,0,0,1,1.789-.547c.034,0,.084,0,.1.013.282.456,1.081.44,1.074,1.165a.167.167,0,0,0,.074.107c.164.117.359.208.238.477-.074.164-.124.342-.191.51-.081.211-.164.426-.255.634s-.191.389-.289.587c-.02.04-.054.094-.04.121.215.4-.1.671-.255.956a5.412,5.412,0,0,0-.336,1.923,1.642,1.642,0,0,1-.1.6,6.1,6.1,0,0,0-.631,2.292c-.027.161-.084.319-.124.48a.693.693,0,0,0-.047.228c.027.356.067.708.1,1.064a.337.337,0,0,1-.034.191,1.389,1.389,0,0,0-.181,1.087c.027.1-.087.228-.091.346a1.645,1.645,0,0,0,.07.376l.285-.111c.245-.094.49-.188.638-.242.242.07.4.114.557.161a.453.453,0,0,1,.168.091c.04.034.05.114.091.138.51.258.272.816.473,1.2.023.044-.04.138-.06.2-.081.248-.148.5-.242.742a1,1,0,0,1-.191.272c-.057.067-.154.111-.195.188a3.55,3.55,0,0,0-.215.49c-.087.238-.289.443-.181.745a.346.346,0,0,1-.151.3c-.232.1-.232.248-.2.46a.993.993,0,0,1-.1.386,2.654,2.654,0,0,0-.211.661,2.463,2.463,0,0,0,.114,1.426,3.121,3.121,0,0,1,.141,1.154c.017.164.034.329.04.5a1.1,1.1,0,0,1-.047.413,2.013,2.013,0,0,1,.2.9c-.02.211.309.46.49.685a.153.153,0,0,0,.151-.01c.248-.258.493-.524.735-.792a1.958,1.958,0,0,0,.148-.222c.064-.091.2-.191.185-.272a.934.934,0,0,1,.366-.856c.47-.443.369-1.215.95-1.584a.161.161,0,0,0,.037-.144c-.282-.52.1-.879.326-1.248a2.045,2.045,0,0,1,1.43-.876,1.533,1.533,0,0,1,1.514.567c.054.07.114.138.164.215a2.19,2.19,0,0,1,.252.6c.174.56.121,1.215.584,1.675.04.04.044.124.064.185a5.445,5.445,0,0,0,.772,1.738c.195.252.607.493.446.953-.01.03.064.1.111.141s.124.047.138.087c.154.524.805.453,1.044.873.02.034.1.04.158.04.453.02.906.034,1.359.054a.472.472,0,0,1,.215.064c.225.134.443.279.664.416a.227.227,0,0,0,.124.03c.564-.057.8.107.973.671a1.089,1.089,0,0,0,.174.282.489.489,0,0,1,.013.671c-.023.023-.064.057-.057.077.094.483-.352.56-.607.688a2.66,2.66,0,0,1-.95.114c-.44.034-.876.064-1.316.091-.359.02-.722.04-1.081.044a6.641,6.641,0,0,1-.728-.054c-.1-.01-.238-.03-.272-.094-.178-.329-.49-.265-.762-.275-.245-.01-.487.054-.631-.225-.03-.057-.128-.087-.2-.111-.285-.094-.574-.174-.859-.265-.03-.01-.074-.044-.07-.064.044-.379-.346-.386-.5-.591-.289-.4-.547-.809-.812-1.222-.154-.238-.292-.487-.456-.762a1.606,1.606,0,0,0-.309.191c-.6.634-1.191,1.289-1.812,1.91a2.95,2.95,0,0,1-.832.567,4.991,4.991,0,0,1-.987.3c-.1.023-.221-.05-.372-.091a.69.69,0,0,1-.1.2c-.07.074-.164.168-.252.171a6.346,6.346,0,0,1-1.158-.017.831.831,0,0,1-.537-.319c-.309-.51-.56-1.057-.836-1.587-.087-.168-.181-.332-.258-.5a1.45,1.45,0,0,1-.114-.373c-.077-.5-.144-1-.218-1.5a1.545,1.545,0,0,1-.054-.319c.05-.722-.235-1.4-.228-2.118a2.2,2.2,0,0,1-.013-.678c.131-.359-.057-.513-.292-.681-.208.114-.409.228-.614.342l-.054-.074c-.057.094-.111.188-.164.282-.168-.027-.322-.054-.513-.087.01.164.017.282.023.436-.114,0-.218,0-.322,0a.666.666,0,0,0-.587.221,1.158,1.158,0,0,1-.621.285,1.655,1.655,0,0,0-.953.426.494.494,0,0,1-.292.144,1.3,1.3,0,0,0-.9.607,1.986,1.986,0,0,0-.151.289.741.741,0,0,0-.02.416c.1.232.272.433-.047.631-.03.017-.017.164.023.222a.584.584,0,0,0,.221.148c.336.178.685.336,1.007.537a1.014,1.014,0,0,1,.309.379c.154.282.5.524.211.913a.147.147,0,0,0,.013.128c.352.735-.047,1.3-.383,1.913a2.3,2.3,0,0,1-1.007.893,4.09,4.09,0,0,1-1.557.507,1.02,1.02,0,0,1-.654-.272,6.029,6.029,0,0,1-.648-.745c-.013-.017-.044-.04-.04-.05.131-.366-.211-.6-.248-.94-.094-.866-.319-1.715-.453-2.577-.06-.386-.02-.785-.047-1.181-.027-.376-.067-.752-.128-1.124-.027-.171-.148-.215-.332-.151a4.994,4.994,0,0,1-1.118.326,3.4,3.4,0,0,0-1.259.221c-.144.074-.383-.047-.577-.074-.315-.044-.372.134-.305.386.07.275.158.55.245.822a2.028,2.028,0,0,1,.091.869,4.959,4.959,0,0,0,.208,1.339.871.871,0,0,1,.6.513.855.855,0,0,0,.359-.138c.208-.161.473-.218.6-.023a3.919,3.919,0,0,1,.6,1.272c.044.2.094.4.144.6a.928.928,0,0,1-.221.658c-.309.393-.675.745-1.017,1.111-.044.047-.1.117-.154.121-.7.07-1.339.483-2.081.312a1.85,1.85,0,0,1-.9-.376,10.925,10.925,0,0,1-.909-1.081c-.067-.074-.221-.07-.305-.094a3.116,3.116,0,0,1-.389.339c-.4.248-.8.483-1.2.711a1.427,1.427,0,0,1-.339.107,2.426,2.426,0,0,0-.477.128.727.727,0,0,1-.722.037,4.062,4.062,0,0,0-1.084-.315,5.9,5.9,0,0,1-1.93-.7,3.086,3.086,0,0,1-1.265-1.322,7.475,7.475,0,0,1-.564-1.581c-.114-.4-.128-.832-.252-1.228a9.81,9.81,0,0,0-.517-1.212.236.236,0,0,0-.228-.054c-.359.2-.782.195-1.138.483a2.208,2.208,0,0,0-.567.859c-.02.037,0,.121-.017.128-.43.151-.222.631-.45.873-.2.211-.433.389-.651.581-.057.05-.144.084-.171.144a3.415,3.415,0,0,1-.883,1.111c-.443.383-.846.805-1.282,1.2a2.79,2.79,0,0,1-.419.228,1.036,1.036,0,0,0-.279.232.908.908,0,0,1-.812.369,1.479,1.479,0,0,0-.292.05,13.734,13.734,0,0,1-1.641.245,2.385,2.385,0,0,1-.943-.262,3.527,3.527,0,0,1-.617-.389,1.892,1.892,0,0,1-.309-.255c-.332-.339-.661-.685-.987-1.03-.044-.047-.124-.111-.114-.151.117-.55-.366-.852-.52-1.289-.161-.456-.356-.9-.524-1.359a1.544,1.544,0,0,0-.594-.728c-.319.53-.6,1.024-.909,1.5a4.507,4.507,0,0,1-.638.876,2.064,2.064,0,0,1-1.228.574,3.4,3.4,0,0,0-1.158.5c-.53.3-.92.322-1.3-.05a1.574,1.574,0,0,1-.285-.547c-.168-.423-.322-.849-.473-1.275-.047-.134-.128-.305-.084-.413a1.13,1.13,0,0,0-.074-.772c-.171-.654-.3-1.319-.446-1.983-.07-.326-.158-.651-.208-.98-.114-.745-.222-1.49-.309-2.238-.054-.45-.06-.9-.087-1.356a.321.321,0,0,0-.01-.1,5.189,5.189,0,0,1-.265-1.695,12.7,12.7,0,0,1-.084-1.342c-.047-.732-.1-1.46-.154-2.191a3.847,3.847,0,0,1-.084-1.161,10.3,10.3,0,0,0,.02-1.507,3.656,3.656,0,0,0-.117-.92c-.054-.352.171-.688.037-1.057a11.2,11.2,0,0,1-.3-1.154,3.525,3.525,0,0,1-.1-.49,3.41,3.41,0,0,0-.141-.9,2.9,2.9,0,0,1,.05-1.118c0-.044.057-.1.044-.121-.134-.265,0-.45.181-.611a1.863,1.863,0,0,1,1.087-.6,1.934,1.934,0,0,1,1.061.185,1.6,1.6,0,0,1,.809,1.114,3.335,3.335,0,0,1,.268,1.285,8.8,8.8,0,0,0-.04,2.121,10.7,10.7,0,0,1-.064,1.916,1.847,1.847,0,0,0,.235,1.181c.06.091-.037.268-.023.4.1.9-.124,1.8-.1,2.691a2.641,2.641,0,0,0,.309,1.53c.124.185.013.517.034.782a5.467,5.467,0,0,0,.319,2.178.425.425,0,0,1,.03.195c.01.4,0,.8.034,1.188a3.572,3.572,0,0,0,.168.493c.094.393.174.789.258,1.181a.12.12,0,0,1-.013.1c-.376.453,0,.849.1,1.262a3.936,3.936,0,0,0,.171.47c.077.2.191.232.352.081a5.162,5.162,0,0,0,1.01-1.265,6.307,6.307,0,0,1,1.772-2.03.82.82,0,0,1,.44-.1c.339-.017.748-.134,1.007.01a5.225,5.225,0,0,1,1.2.718,6.117,6.117,0,0,1,.926,1.712,4.6,4.6,0,0,1,.221.446,2.516,2.516,0,0,1,.107.362c.013.054-.013.144.013.161.423.248.171.809.54,1.118.185.154.181.52.289.775.044.107.161.185.245.272.013.013.05.013.06.03a1.247,1.247,0,0,0,1.014.634c.124.023.282.1.373.054a4.018,4.018,0,0,0,.785-.527,11.736,11.736,0,0,0,.96-.956c.228-.252.419-.54.631-.809a2.334,2.334,0,0,1,.285-.319c.195-.171.282-.389.138-.591a.639.639,0,0,0-.473-.265c-.52.054-.822-.329-1.178-.557a3.635,3.635,0,0,1-.873-.9,2.746,2.746,0,0,1-.56-1.534,15.87,15.87,0,0,1,0-2.188c.04-.48.292-.936.359-1.42a3.274,3.274,0,0,1,.463-1.054,3.907,3.907,0,0,1,1.265-1.483,12.67,12.67,0,0,1,1.51-.859c.248-.128.44-.359.772-.289.44.094.889.154,1.332.238a.239.239,0,0,1,.138.091,5.808,5.808,0,0,1,.99,1.4,6.215,6.215,0,0,1,.409,2.816c-.01.067.044.144.067.215s.074.168.057.178c-.282.211-.1.527-.171.785a1.218,1.218,0,0,0,.275,1.064.324.324,0,0,0,.268.077,13.443,13.443,0,0,1,1.436-.292,1.045,1.045,0,0,1,.758.268c.326.356.769.658.832,1.208a1.021,1.021,0,0,0,.175.339c.017.027.064.057.06.077-.087.446.3.779.289,1.218a4.329,4.329,0,0,0,.171.913c0,.02.027.047.02.064-.168.483.191.842.312,1.252.064.215.312.373.483.55.064.067.211.131.2.185-.037.309.225.409.379.574a.591.591,0,0,0,.6.185,1.173,1.173,0,0,1,.547.044.682.682,0,0,0,.809-.369,2.66,2.66,0,0,0,.144-.336,9.672,9.672,0,0,0,.289-1.336c.064-.688.017-1.386.091-2.071a1.55,1.55,0,0,1,.889-1.084c.107-.067.2-.151.315-.208a.5.5,0,0,1,.285-.07c.406.064.513-.047.433-.43a1.138,1.138,0,0,1,.047-.42c.037-.188.081-.379.134-.564a.347.347,0,0,1,.121-.178,2.519,2.519,0,0,0,.513-.352c.406-.527.96-.319,1.44-.282a2.731,2.731,0,0,0,1.376-.057c.06-.027.148.017.221.027.1.01.245.064.292.02C227.3,57.3,227.689,57.6,228.024,57.3Zm-18.334-.946c-.255.044-.362.144-.389.466a8.071,8.071,0,0,0-.154,1.107c0,.03-.03.06-.044.087a.529.529,0,0,0,.4.779A3.708,3.708,0,0,0,209.691,56.349Z" transform="translate(-138.939 -38.072)" fill="#3d4958"/>
      <path id="Path_9" data-name="Path 9" d="M59.116,70.135a.662.662,0,0,1-.349.658c-.027.017-.074.044-.074.064-.01.537-.453.809-.735,1.168-.305.389-.685.722-1.027,1.081-.292.305-.571.624-.866.926a5.567,5.567,0,0,1-1.45,1.128,17.662,17.662,0,0,1-1.658.819c-.453.171-.973.151-1.43.315a7.281,7.281,0,0,1-2.537.211c-.493,0-.987.064-1.477.034a6.346,6.346,0,0,1-1.071-.228c-.416-.1-.829-.2-1.245-.305-.1-.023-.232-.03-.282-.1-.389-.5-1.06-.49-1.534-.866a5.833,5.833,0,0,0-1.081-.48,2.7,2.7,0,0,1-.587-.406,8.382,8.382,0,0,0-1.188-1.064,6.528,6.528,0,0,1-1.718-1.675c-.309-.376-.668-.711-.967-1.1a7.134,7.134,0,0,1-.513-.883c-.171-.309-.346-.618-.507-.93-.215-.42-.416-.849-.631-1.269-.064-.124-.164-.228-.225-.352a2.257,2.257,0,0,1-.134-.393c-.077-.265-.144-.534-.232-.8-.151-.47-.356-.93-.46-1.413a3.81,3.81,0,0,1,.034-.973.676.676,0,0,1,.037-.094c.285-1,.628-.826,1.349-.819.48,0,.758.423.987.819.138.235.252.483.4.708a.833.833,0,0,1,.168.732,2.48,2.48,0,0,0,.154.936c.054.245.131.49.2.732a.355.355,0,0,0,.017.064c.215.339.436.675.644,1.02.191.319.356.651.557.963.144.221.329.416.493.624.141.181.272.373.419.55.121.144.258.272.389.406.03.03.091.05.1.084.175.628.822.658,1.235.983.05.04.148.054.168.1.188.44.644.581.967.866a2.69,2.69,0,0,0,.809.45,2.962,2.962,0,0,1,.866.571,3.966,3.966,0,0,0,1.148.577,6.9,6.9,0,0,0,.906.235,5.31,5.31,0,0,0,.779.175c.292.023.591-.017.886-.02.336,0,.671,0,1,0a.734.734,0,0,1,.3.013.838.838,0,0,0,.956-.164.123.123,0,0,1,.091-.034c.52.094.92-.235,1.373-.383a2.325,2.325,0,0,1,.53-.077c.446-.03.691-.362,1-.617a5.927,5.927,0,0,0,1.188-1.2c.054-.077.175-.107.238-.181a2.791,2.791,0,0,0,.664-.849,1.453,1.453,0,0,1,.443-.7.282.282,0,0,0,.06-.081c.336-.725.664-1.453,1.007-2.175.238-.51.513-1,.735-1.52a10.926,10.926,0,0,0,.336-1.1c.057-.188.114-.373.171-.557a.34.34,0,0,0,.03-.094c0-.4-.02-.792,0-1.185a4.113,4.113,0,0,1,.154-.654c.077-.349.154-.695.215-1.047.074-.423.141-.849.185-1.275.034-.339.027-.681.047-1.02.037-.611.074-1.222.128-1.832.023-.245.114-.487.131-.735.047-.611.064-1.225.107-1.836.027-.349.087-.691.128-1.04.013-.121.02-.242.023-.362.007-.634-.027-1.269.034-1.9.047-.493.225-.977.305-1.47a6.51,6.51,0,0,1,.174-1.352,5.083,5.083,0,0,0,.252-1.322,12.72,12.72,0,0,1,.319-1.493c.1-.4.272-.782.349-1.185a7.153,7.153,0,0,1,.413-1.6,2.256,2.256,0,0,0,.077-.648.941.941,0,0,1,.03-.195c.154-.493.305-.99.473-1.48.117-.346.289-.675.389-1.027.107-.373.134-.769.235-1.144a2.327,2.327,0,0,1,.326-.7,1.231,1.231,0,0,1,.493-.426,1.791,1.791,0,0,1,1.292-.2,1.846,1.846,0,0,1,1,.822c.134.245.258.493.383.745.03.057.07.141.05.188-.158.336.054.6.148.889a5.666,5.666,0,0,1,.48,2.081,2.786,2.786,0,0,0,.423,1.832,1.909,1.909,0,0,1,.245.923c.03.346.349.648.151,1.027-.02.037.037.128.077.178a1.267,1.267,0,0,1,.265.93,6.61,6.61,0,0,0,.43,2.373.944.944,0,0,1-.007.336c0,.03-.04.077-.027.091.346.426.067.96.248,1.42a3.1,3.1,0,0,1,.336,1.131,3.6,3.6,0,0,0,.168.889,6.935,6.935,0,0,0,.252,1.222,3.745,3.745,0,0,1,.06,1.2c.01.218.037.436.05.654.01.151.02.3.03.456,0,.044-.02.091-.007.128.138.366.3.728.416,1.1a1.741,1.741,0,0,1,.07.591,1.1,1.1,0,0,0,.319.815c.087.1.067.285.148.4a1.938,1.938,0,0,0,.557.6.5.5,0,0,1,.3.644c-.05.258-.05.5-.312.688-.245.181-.188,1.067,0,1.356.077.114.1.268.175.386s.2.232.3.356a4.012,4.012,0,0,1,.654.913,2.553,2.553,0,0,1,.131,1.5,1.3,1.3,0,0,1-.342.6A17.405,17.405,0,0,1,71,67.9c-.463.366-.876.188-1.165-.319a9.241,9.241,0,0,1-.775-2.155c-.04-.144-.007-.312-.047-.456a1.1,1.1,0,0,0-.993-.849,1.3,1.3,0,0,1-.789-.369.868.868,0,0,0-.909-.081c-.611.161-1.215.339-1.822.517-.5.144-.987.305-1.483.446-.426.121-.859.225-1.289.332a.676.676,0,0,0-.5.46,5.763,5.763,0,0,1-.668,1.54.359.359,0,0,0-.047.185,2.106,2.106,0,0,1-.064.554c-.225.51-.48,1.007-.742,1.5C59.546,69.511,59.344,69.783,59.116,70.135Zm6.326-24.7a4.832,4.832,0,0,0-.762-2.487.77.77,0,0,0-.215-.168,1.3,1.3,0,0,0-.134.275c-.037.158.007.393-.087.473a.854.854,0,0,0-.258.688,4.967,4.967,0,0,1-.168.792c-.057.215-.161.416-.208.634-.144.685-.268,1.373-.406,2.057-.044.221-.107.44-.144.661-.064.416-.111.832-.168,1.252-.02.164-.044.329-.06.493a3.46,3.46,0,0,0-.074,1.413c.007.023-.023.06-.034.091a4.866,4.866,0,0,0-.188.594,2.807,2.807,0,0,1-.248,1.222c-.04.057-.01.171,0,.258a4.547,4.547,0,0,1,.081.557c-.01.819-.027,1.638-.06,2.46-.013.3-.04.614-.074.9a4.241,4.241,0,0,0-.131.846,3.829,3.829,0,0,1,.06.584c-.034.544-.1,1.084-.144,1.628a.5.5,0,0,0,.664.571,2.063,2.063,0,0,1,.963-.148.368.368,0,0,0,.161-.04,6.669,6.669,0,0,1,.826-.252c.524-.087,1.057-.117,1.581-.2a4.538,4.538,0,0,0,1.054-.289c.211-.094.517-.312.524-.48a15.874,15.874,0,0,0-.117-1.95c-.034-.356-.117-.708-.161-1.064-.054-.463-.074-.933-.138-1.4-.07-.5-.178-1-.275-1.5-.02-.1-.077-.188-.091-.285a3.861,3.861,0,0,1-.087-.755c.01-.211.07-.4-.077-.6a1.244,1.244,0,0,1-.2-.52c-.054-.359-.054-.728-.1-1.087s-.124-.7-.208-1.044a13.607,13.607,0,0,1-.369-1.433,6.5,6.5,0,0,1-.144-1.487c0-.037-.044-.077-.057-.121C65.66,46.2,65.553,45.814,65.442,45.432Z" transform="translate(-35.116 -37.068)" fill="#3d4958"/>
      <path id="Path_10" data-name="Path 10" d="M160.413,98.364a2.669,2.669,0,0,0,.379.215c.292.111.56.3.916.154a2.251,2.251,0,0,1,.695-.05.794.794,0,0,0,.3-.013,3.018,3.018,0,0,1,1.168-.178,5.874,5.874,0,0,0,1.014-.222.28.28,0,0,0,.107-.252.953.953,0,0,0-.587-.634c-.584-.235-1.151-.517-1.725-.779a.75.75,0,0,0-.309-.117,1.757,1.757,0,0,1-1.084-.45,4.645,4.645,0,0,1-1.191-1.084,17.385,17.385,0,0,1-.906-1.581,1.985,1.985,0,0,1-.044-1.487,6.464,6.464,0,0,1,.477-1.3,4.028,4.028,0,0,1,1.272-1.6,9.815,9.815,0,0,1,1.054-.866,5.948,5.948,0,0,1,1.349-.534,9.73,9.73,0,0,1,1.638-.342,3.615,3.615,0,0,1,1.933.3,2.808,2.808,0,0,1,.728.483c.2.191.56.349.346.752a.142.142,0,0,0,.007.1,3.082,3.082,0,0,1-.128,1.812,6.156,6.156,0,0,1-.953,1.92,9.549,9.549,0,0,1-1.326,1.148,5.853,5.853,0,0,0-.574.581.229.229,0,0,0,.03.225,1.766,1.766,0,0,0,.47.305,24.692,24.692,0,0,1,2.792,1.238c.356.181.7.366,1.057.554.027.013.067.04.07.067a4.1,4.1,0,0,1,.178,1.732c-.013.054-.034.128-.07.148-.611.3-.889.987-1.48,1.3-.386.208-.8.362-1.2.544-.01,0-.027,0-.034,0-.376.342-.906.242-1.326.466a.97.97,0,0,1-.315.1c-.473.06-.943.114-1.42.158-.691.064-1.386.141-2.081.164a6.2,6.2,0,0,1-.987-.128,2.73,2.73,0,0,0-.466-.037,2.63,2.63,0,0,1-2-.863,1.808,1.808,0,0,1-.483-1.735,3.153,3.153,0,0,1,.339-1.121c.114-.175.262-.322.386-.49a3.952,3.952,0,0,0,.48-.695c.161-.369.52-.221.765-.359.013-.01.044.01.064.01.174,0,.46-.054.5.023a1.484,1.484,0,0,1,.309,1.212A6.9,6.9,0,0,0,160.413,98.364Zm3.524-7.118c-.017-.037-.034-.077-.05-.114-.208.034-.416.064-.624.1-.4.07-.352.43-.436.691a.88.88,0,0,0,.027.319,1.02,1.02,0,0,0,.322-.121c.195-.185.362-.4.54-.6C163.789,91.431,163.863,91.337,163.936,91.246Z" transform="translate(-116.529 -70.388)" fill="#3d4958"/>
      <path id="Path_11" data-name="Path 11" d="M274.43,79.7c0-.131-.013-.342,0-.547a1.2,1.2,0,0,1,.594-.846,6.5,6.5,0,0,1,1.228-.7c.081-.037.164-.06.245-.094a3.545,3.545,0,0,0,.53-.225c.305-.188.6-.356.96-.134a.344.344,0,0,0,.285.044c.225-.141.376-.06.56.084a.657.657,0,0,1,.252.53,5.233,5.233,0,0,0,.285.916.453.453,0,0,1,0,.332c-.168.258-.379.487-.564.735a2.09,2.09,0,0,1-1.04.725.5.5,0,0,0-.2.107c-.567.641-1.342.46-2.04.473C274.94,81.115,274.383,80.36,274.43,79.7Z" transform="translate(-194.113 -63.629)" fill="#3d4958"/>
    </g>
  </g>
</svg>
